<?xml version="1.0" standalone="no"?>
<!DOCTYPE svg PUBLIC "-//W3C//DTD SVG 20010904//EN"
 "http://www.w3.org/TR/2001/REC-SVG-20010904/DTD/svg10.dtd">
<svg version="1.0" xmlns="http://www.w3.org/2000/svg"
 width="240.000000pt" height="240.000000pt" viewBox="0 0 240.000000 240.000000"
 preserveAspectRatio="xMidYMid meet">
<metadata>
Created by potrace 1.11, written by Peter Selinger 2001-2013
</metadata>
<g transform="translate(0.000000,240.000000) scale(0.100000,-0.100000)"
fill="#000000" stroke="none">
<path d="M1013 2275 c-106 -19 -791 -250 -847 -285 -49 -32 -100 -101 -116
-160 -6 -21 -10 -272 -10 -631 0 -668 -2 -650 72 -734 22 -25 61 -56 87 -69
61 -31 695 -241 791 -262 102 -23 318 -23 420 0 96 21 730 231 791 262 26 13
65 44 87 69 74 84 72 66 72 734 0 359 -4 610 -10 631 -16 59 -67 128 -116 160
-58 36 -742 266 -852 285 -96 18 -273 17 -369 0z m362 -150 c74 -16 720 -228
768 -252 15 -8 37 -28 47 -46 19 -31 20 -54 20 -620 0 -416 -3 -595 -11 -610
-30 -57 -48 -65 -428 -191 -578 -192 -564 -192 -1142 0 -380 126 -398 134
-428 191 -8 15 -11 194 -11 610 0 566 1 589 20 620 10 18 32 38 47 46 45 23
694 236 764 252 86 18 267 18 354 0z"/>
</g>
</svg>
